{
  "source": "C:\\Users\\Peter\\Desktop\\stuff\\MIUN\\quantitative_research\\video_compression\\videos\\BVI-HD\\BVI-HD_CDVL_videos\\ORIG\\BridgeRiver_1920x1080_30fps.mp4",
  "output": "C:\\Users\\Peter\\Desktop\\stuff\\MIUN\\quantitative_research\\video_compression\\compressed_videos\\BVI-HD\\hevc\\2.5\\BridgeRiver_1920x1080_30fps_hevc.mp4",
  "codec": "hevc",
  "ok": "Input #0, mov,mp4,m4a,3gp,3g2,mj2, from 'C:\\Users\\Peter\\Desktop\\stuff\\MIUN\\quantitative_research\\video_compression\\videos\\BVI-HD\\BVI-HD_CDVL_videos\\ORIG\\BridgeRiver_1920x1080_30fps.mp4':\n  Metadata:\n    major_brand     : isom\n    minor_version   : 512\n    compatible_brands: isomiso2avc1mp41\n    encoder         : Lavf54.28.101\n  Duration: 00:00:05.00, start: 0.000000, bitrate: 274913 kb/s\n  Stream #0:0[0x1](und): Video: h264 (High 4:4:4 Predictive) (avc1 / 0x31637661), yuv420p(progressive), 1920x1080, 274910 kb/s, 30 fps, 30 tbr, 30 tbn (default)\n    Metadata:\n      handler_name    : VideoHandler\n      vendor_id       : [0][0][0][0]\n[out#0/mp4 @ 0000015ad7411700] Codec AVOption b:a (set bitrate (in bits/s)) has not been used for any stream. The most likely reason is either wrong type (e.g. a video option with no video streams) or that it is a private option of some decoder which was not actually used for any stream.\nStream mapping:\n  Stream #0:0 -> #0:0 (h264 (native) -> hevc (libx265))\nPress [q] to stop, [?] for help\n[libx265 @ 0000015ad7f70180] Unknown option: \"aq-mode.\nx265 [info]: HEVC encoder version 4.1+190-8f11c33ac\nx265 [info]: build info [Windows][GCC 15.1.0][64 bit] 10bit\nx265 [info]: using cpu capabilities: MMX2 SSE2Fast LZCNT SSSE3 SSE4.2 AVX FMA3 BMI2 AVX2\nx265 [info]: Main 10 profile, Level-4 (Main tier)\nx265 [info]: Thread pool created using 12 threads\nx265 [info]: Slices                              : 1\nx265 [info]: frame threads / pool features       : 3 / wpp(17 rows)\nx265 [info]: Coding QT: max CU size, min CU size : 64 / 8\nx265 [info]: Residual QT: max TU size, max depth : 32 / 1 inter / 1 intra\nx265 [info]: ME / range / subpel / merge         : star / 57 / 3 / 3\nx265 [info]: Keyframe min / max / scenecut / bias  : 25 / 250 / 40 / 5.00 \nx265 [info]: Lookahead / bframes / badapt        : 25 / 4 / 2\nx265 [info]: b-pyramid / weightp / weightb       : 1 / 1 / 0\nx265 [info]: References / ref-limit  cu / depth  : 4 / on / on\nx265 [info]: AQ: mode / str / qg-size / cu-tree  : 2 / 1.0 / 32 / 1\nx265 [info]: Rate Control / qCompress            : ABR-2500 kbps / 0.60\nx265 [info]: VBV/HRD buffer / max-rate / init    : 2500 / 2500 / 0.750\nx265 [info]: tools: rect limit-modes rd=4 psy-rd=2.00 rdoq=2 psy-rdoq=1.00\nx265 [info]: tools: rskip mode=1 signhide tmvp strong-intra-smoothing lslices=4\nx265 [info]: tools: deblock sao dhdr10-info\nOutput #0, mp4, to 'C:\\Users\\Peter\\Desktop\\stuff\\MIUN\\quantitative_research\\video_compression\\compressed_videos\\BVI-HD\\hevc\\2.5\\BridgeRiver_1920x1080_30fps_hevc.mp4':\n  Metadata:\n    major_brand     : isom\n    minor_version   : 512\n    compatible_brands: isomiso2avc1mp41\n    encoder         : Lavf62.3.100\n  Stream #0:0(und): Video: hevc (hev1 / 0x31766568), yuv420p10le(tv, progressive), 1920x1080, q=2-31, 2500 kb/s, 30 fps, 15360 tbn (default)\n    Metadata:\n      encoder         : Lavc62.11.100 libx265\n      handler_name    : VideoHandler\n      vendor_id       : [0][0][0][0]\n    Side data:\n      cpb: bitrate max/min/avg: 2500000/0/2500000 buffer size: 2500000 vbv_delay: N/A\nframe=    0 fps=0.0 q=0.0 size=       0KiB time=N/A bitrate=N/A speed=N/A elapsed=0:00:01.04    \nframe=    0 fps=0.0 q=0.0 size=       0KiB time=N/A bitrate=N/A speed=N/A elapsed=0:00:01.58    \nframe=    0 fps=0.0 q=0.0 size=       0KiB time=N/A bitrate=N/A speed=N/A elapsed=0:00:02.11    \nframe=    0 fps=0.0 q=0.0 size=       0KiB time=N/A bitrate=N/A speed=N/A elapsed=0:00:02.64    \nframe=    0 fps=0.0 q=0.0 size=       0KiB time=N/A bitrate=N/A speed=N/A elapsed=0:00:03.15    \nframe=    0 fps=0.0 q=0.0 size=       0KiB time=N/A bitrate=N/A speed=N/A elapsed=0:00:03.70    \nframe=    0 fps=0.0 q=0.0 size=       0KiB time=N/A bitrate=N/A speed=N/A elapsed=0:00:04.21    \nframe=    0 fps=0.0 q=0.0 size=       0KiB time=N/A bitrate=N/A speed=N/A elapsed=0:00:04.73    \nframe=    0 fps=0.0 q=0.0 size=       0KiB time=N/A bitrate=N/A speed=N/A elapsed=0:00:05.25    \nframe=    0 fps=0.0 q=0.0 size=       0KiB time=N/A bitrate=N/A speed=N/A elapsed=0:00:05.76    \nframe=    0 fps=0.0 q=0.0 size=       0KiB time=N/A bitrate=N/A speed=N/A elapsed=0:00:06.36    \nframe=    0 fps=0.0 q=0.0 size=       0KiB time=N/A bitrate=N/A speed=N/A elapsed=0:00:06.94    \nframe=    0 fps=0.0 q=0.0 size=       0KiB time=N/A bitrate=N/A speed=N/A elapsed=0:00:07.47    \nframe=    1 fps=0.1 q=38.5 size=       0KiB time=-00:00:00.03 bitrate=N/A speed=N/A elapsed=0:00:07.98    \nframe=    1 fps=0.1 q=38.5 size=       0KiB time=-00:00:00.03 bitrate=N/A speed=N/A elapsed=0:00:08.50    \nframe=    2 fps=0.2 q=45.5 size=       0KiB time=00:00:00.00 bitrate=N/A speed=   0x elapsed=0:00:09.02    \nframe=    3 fps=0.3 q=48.1 size=       0KiB time=00:00:00.03 bitrate=  10.6kbits/s speed=0.00349x elapsed=0:00:09.54    \nframe=    3 fps=0.3 q=48.1 size=       0KiB time=00:00:00.03 bitrate=  10.6kbits/s speed=0.00331x elapsed=0:00:10.06    \nframe=    4 fps=0.4 q=49.2 size=       0KiB time=00:00:00.06 bitrate=   5.3kbits/s speed=0.00629x elapsed=0:00:10.60    \nframe=    4 fps=0.4 q=49.2 size=       0KiB time=00:00:00.06 bitrate=   5.3kbits/s speed=0.00599x elapsed=0:00:11.12    \nframe=    4 fps=0.3 q=49.2 size=       0KiB time=00:00:00.06 bitrate=   5.3kbits/s speed=0.00571x elapsed=0:00:11.66    \nframe=    5 fps=0.4 q=49.2 size=       0KiB time=00:00:00.10 bitrate=   3.5kbits/s speed=0.0082x elapsed=0:00:12.19    \nframe=    6 fps=0.5 q=49.1 size=       0KiB time=00:00:00.13 bitrate=   2.6kbits/s speed=0.0105x elapsed=0:00:12.71    \nframe=    6 fps=0.5 q=49.1 size=       0KiB time=00:00:00.13 bitrate=   2.6kbits/s speed=0.0101x elapsed=0:00:13.23    \nframe=    6 fps=0.4 q=49.1 size=       0KiB time=00:00:00.13 bitrate=   2.6kbits/s speed=0.00969x elapsed=0:00:13.76    \nframe=    6 fps=0.4 q=49.1 size=       0KiB time=00:00:00.13 bitrate=   2.6kbits/s speed=0.00932x elapsed=0:00:14.30    \nframe=    6 fps=0.4 q=49.1 size=       0KiB time=00:00:00.13 bitrate=   2.6kbits/s speed=0.00899x elapsed=0:00:14.83    \nframe=    7 fps=0.5 q=40.4 size=       0KiB time=00:00:00.16 bitrate=   2.1kbits/s speed=0.0109x elapsed=0:00:15.35    \nframe=    7 fps=0.4 q=40.4 size=       0KiB time=00:00:00.16 bitrate=   2.1kbits/s speed=0.0105x elapsed=0:00:15.87    \nframe=    8 fps=0.5 q=46.0 size=       0KiB time=00:00:00.20 bitrate=   1.8kbits/s speed=0.0122x elapsed=0:00:16.39    \nframe=    8 fps=0.5 q=46.0 size=       0KiB time=00:00:00.20 bitrate=   1.8kbits/s speed=0.0118x elapsed=0:00:16.90    \nframe=    9 fps=0.5 q=45.9 size=       0KiB time=00:00:00.23 bitrate=   1.5kbits/s speed=0.0134x elapsed=0:00:17.42    \nframe=    9 fps=0.5 q=45.9 size=       0KiB time=00:00:00.23 bitrate=   1.5kbits/s speed=0.013x elapsed=0:00:17.95    \nframe=   10 fps=0.5 q=45.9 size=       0KiB time=00:00:00.26 bitrate=   1.3kbits/s speed=0.0144x elapsed=0:00:18.46    \nframe=   10 fps=0.5 q=45.9 size=       0KiB time=00:00:00.26 bitrate=   1.3kbits/s speed=0.014x elapsed=0:00:18.98    \nframe=   10 fps=0.5 q=45.9 size=       0KiB time=00:00:00.26 bitrate=   1.3kbits/s speed=0.0137x elapsed=0:00:19.50    \nframe=   10 fps=0.5 q=45.9 size=       0KiB time=00:00:00.26 bitrate=   1.3kbits/s speed=0.0133x elapsed=0:00:20.01    \nframe=   10 fps=0.5 q=45.9 size=       0KiB time=00:00:00.26 bitrate=   1.3kbits/s speed=0.013x elapsed=0:00:20.53    \nframe=   12 fps=0.6 q=39.7 size=       0KiB time=00:00:00.30 bitrate=   1.2kbits/s speed=0.0143x elapsed=0:00:21.04    \nframe=   12 fps=0.6 q=39.7 size=       0KiB time=00:00:00.33 bitrate=   1.1kbits/s speed=0.0155x elapsed=0:00:21.56    \nframe=   13 fps=0.6 q=43.9 size=       0KiB time=00:00:00.36 bitrate=   1.0kbits/s speed=0.0166x elapsed=0:00:22.09    \nframe=   13 fps=0.6 q=43.9 size=       0KiB time=00:00:00.36 bitrate=   1.0kbits/s speed=0.0162x elapsed=0:00:22.61    \nframe=   14 fps=0.6 q=45.1 size=       0KiB time=00:00:00.40 bitrate=   0.9kbits/s speed=0.0173x elapsed=0:00:23.14    \nframe=   14 fps=0.6 q=45.1 size=       0KiB time=00:00:00.40 bitrate=   0.9kbits/s speed=0.0169x elapsed=0:00:23.68    \nframe=   15 fps=0.6 q=45.1 size=       0KiB time=00:00:00.43 bitrate=   0.8kbits/s speed=0.0179x elapsed=0:00:24.21    \nframe=   15 fps=0.6 q=45.1 size=       0KiB time=00:00:00.43 bitrate=   0.8kbits/s speed=0.0175x elapsed=0:00:24.73    \nframe=   16 fps=0.6 q=45.0 size=       0KiB time=00:00:00.46 bitrate=   0.8kbits/s speed=0.0185x elapsed=0:00:25.26    \nframe=   16 fps=0.6 q=45.0 size=       0KiB time=00:00:00.46 bitrate=   0.8kbits/s speed=0.0181x elapsed=0:00:25.78    \nframe=   16 fps=0.6 q=45.0 size=       0KiB time=00:00:00.46 bitrate=   0.8kbits/s speed=0.0177x elapsed=0:00:26.30    \nframe=   16 fps=0.6 q=45.0 size=       0KiB time=00:00:00.46 bitrate=   0.8kbits/s speed=0.0174x elapsed=0:00:26.80    \nframe=   16 fps=0.6 q=45.0 size=       0KiB time=00:00:00.46 bitrate=   0.8kbits/s speed=0.0171x elapsed=0:00:27.33    \nframe=   17 fps=0.6 q=40.6 size=       0KiB time=00:00:00.50 bitrate=   0.7kbits/s speed=0.0179x elapsed=0:00:27.86    \nframe=   18 fps=0.6 q=44.9 size=       0KiB time=00:00:00.53 bitrate=   0.7kbits/s speed=0.0188x elapsed=0:00:28.39    \nframe=   18 fps=0.6 q=44.9 size=       0KiB time=00:00:00.53 bitrate=   0.7kbits/s speed=0.0184x elapsed=0:00:28.95    \nframe=   18 fps=0.6 q=44.9 size=       0KiB time=00:00:00.53 bitrate=   0.7kbits/s speed=0.0181x elapsed=0:00:29.52    \nframe=   18 fps=0.6 q=44.9 size=       0KiB time=00:00:00.53 bitrate=   0.7kbits/s speed=0.0177x elapsed=0:00:30.05    \nframe=   19 fps=0.6 q=45.1 size=       0KiB time=00:00:00.56 bitrate=   0.6kbits/s speed=0.0185x elapsed=0:00:30.56    \nframe=   20 fps=0.6 q=45.8 size=       0KiB time=00:00:00.60 bitrate=   0.6kbits/s speed=0.0193x elapsed=0:00:31.07    \nframe=   20 fps=0.6 q=45.8 size=       0KiB time=00:00:00.60 bitrate=   0.6kbits/s speed=0.019x elapsed=0:00:31.60    \nframe=   21 fps=0.7 q=45.9 size=       0KiB time=00:00:00.63 bitrate=   0.6kbits/s speed=0.0197x elapsed=0:00:32.11    \nframe=   21 fps=0.6 q=45.9 size=       0KiB time=00:00:00.63 bitrate=   0.6kbits/s speed=0.0194x elapsed=0:00:32.64    \nframe=   21 fps=0.6 q=45.9 size=       0KiB time=00:00:00.63 bitrate=   0.6kbits/s speed=0.0191x elapsed=0:00:33.16    \nframe=   21 fps=0.6 q=45.9 size=       0KiB time=00:00:00.63 bitrate=   0.6kbits/s speed=0.0188x elapsed=0:00:33.68    \nframe=   23 fps=0.7 q=44.7 size=     256KiB time=00:00:00.70 bitrate=2996.4kbits/s speed=0.0205x elapsed=0:00:34.20    \nframe=   23 fps=0.7 q=44.7 size=     256KiB time=00:00:00.70 bitrate=2996.4kbits/s speed=0.0202x elapsed=0:00:34.71    \nframe=   23 fps=0.7 q=44.7 size=     256KiB time=00:00:00.70 bitrate=2996.4kbits/s speed=0.0199x elapsed=0:00:35.23    \nframe=   24 fps=0.7 q=46.0 size=     256KiB time=00:00:00.73 bitrate=2860.2kbits/s speed=0.0205x elapsed=0:00:35.74    \nframe=   24 fps=0.7 q=46.0 size=     256KiB time=00:00:00.73 bitrate=2860.2kbits/s speed=0.0202x elapsed=0:00:36.26    \nframe=   24 fps=0.7 q=46.0 size=     256KiB time=00:00:00.73 bitrate=2860.2kbits/s speed=0.0199x elapsed=0:00:36.82    \nframe=   24 fps=0.6 q=46.0 size=     256KiB time=00:00:00.73 bitrate=2860.2kbits/s speed=0.0196x elapsed=0:00:37.35    \nframe=   25 fps=0.7 q=46.0 size=     256KiB time=00:00:00.76 bitrate=2735.9kbits/s speed=0.0202x elapsed=0:00:37.93    \nframe=   25 fps=0.6 q=46.0 size=     256KiB time=00:00:00.76 bitrate=2735.9kbits/s speed=0.0199x elapsed=0:00:38.48    \nframe=   25 fps=0.6 q=46.0 size=     256KiB time=00:00:00.76 bitrate=2735.9kbits/s speed=0.0196x elapsed=0:00:39.09    \nframe=   25 fps=0.6 q=46.0 size=     256KiB time=00:00:00.76 bitrate=2735.9kbits/s speed=0.0193x elapsed=0:00:39.78    \nframe=   25 fps=0.6 q=46.0 size=     256KiB time=00:00:00.76 bitrate=2735.9kbits/s speed=0.019x elapsed=0:00:40.43    \nframe=   25 fps=0.6 q=46.0 size=     256KiB time=00:00:00.76 bitrate=2735.9kbits/s speed=0.0187x elapsed=0:00:40.97    \nframe=   25 fps=0.6 q=46.0 size=     256KiB time=00:00:00.76 bitrate=2735.9kbits/s speed=0.0185x elapsed=0:00:41.49    \nframe=   25 fps=0.6 q=46.0 size=     256KiB time=00:00:00.76 bitrate=2735.9kbits/s speed=0.0182x elapsed=0:00:42.03    \nframe=   26 fps=0.6 q=41.2 size=     256KiB time=00:00:00.80 bitrate=2621.9kbits/s speed=0.0188x elapsed=0:00:42.58    \nframe=   26 fps=0.6 q=41.2 size=     256KiB time=00:00:00.80 bitrate=2621.9kbits/s speed=0.0186x elapsed=0:00:43.12    \nframe=   26 fps=0.6 q=41.2 size=     256KiB time=00:00:00.80 bitrate=2621.9kbits/s speed=0.0183x elapsed=0:00:43.68    \nframe=   27 fps=0.6 q=44.3 size=     256KiB time=00:00:00.83 bitrate=2517.0kbits/s speed=0.0188x elapsed=0:00:44.23    \nframe=   27 fps=0.6 q=44.3 size=     256KiB time=00:00:00.83 bitrate=2517.0kbits/s speed=0.0186x elapsed=0:00:44.80    \nframe=   28 fps=0.6 q=45.9 size=     256KiB time=00:00:00.86 bitrate=2420.2kbits/s speed=0.0191x elapsed=0:00:45.34    \nframe=   28 fps=0.6 q=45.9 size=     256KiB time=00:00:00.86 bitrate=2420.2kbits/s speed=0.0189x elapsed=0:00:45.87    \nframe=   28 fps=0.6 q=45.9 size=     256KiB time=00:00:00.86 bitrate=2420.2kbits/s speed=0.0187x elapsed=0:00:46.43    \nframe=   28 fps=0.6 q=45.9 size=     256KiB time=00:00:00.86 bitrate=2420.2kbits/s speed=0.0185x elapsed=0:00:46.95    \nframe=   29 fps=0.6 q=46.0 size=     256KiB time=00:00:00.90 bitrate=2330.6kbits/s speed=0.0189x elapsed=0:00:47.53    \nframe=   29 fps=0.6 q=46.0 size=     256KiB time=00:00:00.90 bitrate=2330.6kbits/s speed=0.0187x elapsed=0:00:48.08    \nframe=   29 fps=0.6 q=46.0 size=     256KiB time=00:00:00.90 bitrate=2330.6kbits/s speed=0.0185x elapsed=0:00:48.60    \nframe=   29 fps=0.6 q=46.0 size=     256KiB time=00:00:00.90 bitrate=2330.6kbits/s speed=0.0183x elapsed=0:00:49.14    \nframe=   30 fps=0.6 q=45.9 size=     256KiB time=00:00:00.93 bitrate=2247.3kbits/s speed=0.0188x elapsed=0:00:49.65    \nframe=   30 fps=0.6 q=45.9 size=     256KiB time=00:00:00.93 bitrate=2247.3kbits/s speed=0.0186x elapsed=0:00:50.16    \nframe=   30 fps=0.6 q=45.9 size=     256KiB time=00:00:00.93 bitrate=2247.3kbits/s speed=0.0184x elapsed=0:00:50.72    \nframe=   30 fps=0.6 q=45.9 size=     256KiB time=00:00:00.93 bitrate=2247.3kbits/s speed=0.0182x elapsed=0:00:51.27    \nframe=   30 fps=0.6 q=45.9 size=     256KiB time=00:00:00.93 bitrate=2247.3kbits/s speed=0.018x elapsed=0:00:51.86    \nframe=   30 fps=0.6 q=45.9 size=     256KiB time=00:00:00.93 bitrate=2247.3kbits/s speed=0.0178x elapsed=0:00:52.50    \nframe=   30 fps=0.6 q=45.9 size=     256KiB time=00:00:00.93 bitrate=2247.3kbits/s speed=0.0176x elapsed=0:00:53.17    \nframe=   30 fps=0.6 q=45.9 size=     256KiB time=00:00:00.93 bitrate=2247.3kbits/s speed=0.0173x elapsed=0:00:53.84    \nframe=   30 fps=0.6 q=45.9 size=     256KiB time=00:00:00.93 bitrate=2247.3kbits/s speed=0.0171x elapsed=0:00:54.42    \nframe=   31 fps=0.6 q=41.1 size=     256KiB time=00:00:00.96 bitrate=2169.8kbits/s speed=0.0176x elapsed=0:00:54.96    \nframe=   31 fps=0.6 q=41.1 size=     256KiB time=00:00:00.96 bitrate=2169.8kbits/s speed=0.0174x elapsed=0:00:55.52    \nframe=   32 fps=0.6 q=42.9 size=     256KiB time=00:00:01.00 bitrate=2097.5kbits/s speed=0.0178x elapsed=0:00:56.10    \nframe=   32 fps=0.6 q=42.9 size=     256KiB time=00:00:01.00 bitrate=2097.5kbits/s speed=0.0177x elapsed=0:00:56.65    \nframe=   32 fps=0.6 q=42.9 size=     256KiB time=00:00:01.00 bitrate=2097.5kbits/s speed=0.0175x elapsed=0:00:57.18    \nframe=   32 fps=0.6 q=42.9 size=     256KiB time=00:00:01.00 bitrate=2097.5kbits/s speed=0.0173x elapsed=0:00:57.73    \nframe=   33 fps=0.6 q=46.0 size=     256KiB time=00:00:01.03 bitrate=2029.8kbits/s speed=0.0177x elapsed=0:00:58.26    \nframe=   33 fps=0.6 q=46.0 size=     256KiB time=00:00:01.03 bitrate=2029.8kbits/s speed=0.0176x elapsed=0:00:58.79    \nframe=   33 fps=0.6 q=46.0 size=     256KiB time=00:00:01.03 bitrate=2029.8kbits/s speed=0.0174x elapsed=0:00:59.34    \nframe=   33 fps=0.6 q=46.0 size=     256KiB time=00:00:01.03 bitrate=2029.8kbits/s speed=0.0173x elapsed=0:00:59.88    \nframe=   34 fps=0.6 q=46.0 size=     256KiB time=00:00:01.06 bitrate=1966.4kbits/s speed=0.0177x elapsed=0:01:00.40    \nframe=   34 fps=0.6 q=46.0 size=     256KiB time=00:00:01.06 bitrate=1966.4kbits/s speed=0.0175x elapsed=0:01:00.94    \nframe=   34 fps=0.6 q=46.0 size=     256KiB time=00:00:01.06 bitrate=1966.4kbits/s speed=0.0173x elapsed=0:01:01.48    \nframe=   34 fps=0.5 q=46.0 size=     256KiB time=00:00:01.06 bitrate=1966.4kbits/s speed=0.0172x elapsed=0:01:02.04    \nframe=   34 fps=0.5 q=46.0 size=     256KiB time=00:00:01.06 bitrate=1966.4kbits/s speed=0.017x elapsed=0:01:02.62    \nframe=   34 fps=0.5 q=46.0 size=     256KiB time=00:00:01.06 bitrate=1966.4kbits/s speed=0.0169x elapsed=0:01:03.17    \nframe=   34 fps=0.5 q=46.0 size=     256KiB time=00:00:01.06 bitrate=1966.4kbits/s speed=0.0167x elapsed=0:01:03.68    \nframe=   34 fps=0.5 q=46.0 size=     256KiB time=00:00:01.06 bitrate=1966.4kbits/s speed=0.0166x elapsed=0:01:04.20    \nframe=   34 fps=0.5 q=46.0 size=     256KiB time=00:00:01.06 bitrate=1966.4kbits/s speed=0.0165x elapsed=0:01:04.77    \nframe=   35 fps=0.5 q=46.0 size=     256KiB time=00:00:01.10 bitrate=1906.8kbits/s speed=0.0168x elapsed=0:01:05.33    \nframe=   35 fps=0.5 q=46.0 size=     256KiB time=00:00:01.10 bitrate=1906.8kbits/s speed=0.0167x elapsed=0:01:05.89    \nframe=   35 fps=0.5 q=46.0 size=     256KiB time=00:00:01.10 bitrate=1906.8kbits/s speed=0.0166x elapsed=0:01:06.44    \nframe=   35 fps=0.5 q=46.0 size=     256KiB time=00:00:01.10 bitrate=1906.8kbits/s speed=0.0164x elapsed=0:01:06.96    \nframe=   37 fps=0.5 q=44.4 size=     256KiB time=00:00:01.16 bitrate=1797.9kbits/s speed=0.0173x elapsed=0:01:07.51    \nframe=   37 fps=0.5 q=44.4 size=     256KiB time=00:00:01.16 bitrate=1797.9kbits/s speed=0.0171x elapsed=0:01:08.03    \nframe=   37 fps=0.5 q=44.4 size=     256KiB time=00:00:01.16 bitrate=1797.9kbits/s speed=0.017x elapsed=0:01:08.57    \nframe=   37 fps=0.5 q=44.4 size=     256KiB time=00:00:01.16 bitrate=1797.9kbits/s speed=0.0169x elapsed=0:01:09.16    \nframe=   37 fps=0.5 q=44.4 size=     256KiB time=00:00:01.16 bitrate=1797.9kbits/s speed=0.0167x elapsed=0:01:09.71    \nframe=   37 fps=0.5 q=44.4 size=     256KiB time=00:00:01.16 bitrate=1797.9kbits/s speed=0.0166x elapsed=0:01:10.28    \nframe=   38 fps=0.5 q=46.0 size=     256KiB time=00:00:01.20 bitrate=1747.9kbits/s speed=0.0169x elapsed=0:01:10.80    \nframe=   38 fps=0.5 q=46.0 size=     256KiB time=00:00:01.20 bitrate=1747.9kbits/s speed=0.0168x elapsed=0:01:11.32    \nframe=   38 fps=0.5 q=46.0 size=     256KiB time=00:00:01.20 bitrate=1747.9kbits/s speed=0.0167x elapsed=0:01:11.85    \nframe=   38 fps=0.5 q=46.0 size=     256KiB time=00:00:01.20 bitrate=1747.9kbits/s speed=0.0166x elapsed=0:01:12.37    \nframe=   39 fps=0.5 q=46.0 size=     256KiB time=00:00:01.23 bitrate=1700.7kbits/s speed=0.0169x elapsed=0:01:12.90    \nframe=   39 fps=0.5 q=46.0 size=     256KiB time=00:00:01.23 bitrate=1700.7kbits/s speed=0.0168x elapsed=0:01:13.43    \nframe=   40 fps=0.5 q=46.0 size=     256KiB time=00:00:01.26 bitrate=1655.9kbits/s speed=0.0171x elapsed=0:01:13.96    \nframe=   40 fps=0.5 q=46.0 size=     256KiB time=00:00:01.26 bitrate=1655.9kbits/s speed=0.017x elapsed=0:01:14.51    \nframe=   40 fps=0.5 q=46.0 size=     256KiB time=00:00:01.26 bitrate=1655.9kbits/s speed=0.0169x elapsed=0:01:15.04    \nframe=   40 fps=0.5 q=46.0 size=     256KiB time=00:00:01.26 bitrate=1655.9kbits/s speed=0.0168x elapsed=0:01:15.60    \nframe=   40 fps=0.5 q=46.0 size=     256KiB time=00:00:01.26 bitrate=1655.9kbits/s speed=0.0166x elapsed=0:01:16.18    \nframe=   40 fps=0.5 q=46.0 size=     256KiB time=00:00:01.26 bitrate=1655.9kbits/s speed=0.0165x elapsed=0:01:16.71    \nframe=   40 fps=0.5 q=46.0 size=     256KiB time=00:00:01.26 bitrate=1655.9kbits/s speed=0.0164x elapsed=0:01:17.27    \nframe=   40 fps=0.5 q=46.0 size=     256KiB time=00:00:01.26 bitrate=1655.9kbits/s speed=0.0163x elapsed=0:01:17.80    \nframe=   40 fps=0.5 q=46.0 size=     256KiB time=00:00:01.26 bitrate=1655.9kbits/s speed=0.0162x elapsed=0:01:18.35    \nframe=   42 fps=0.5 q=45.0 size=     256KiB time=00:00:01.30 bitrate=1613.5kbits/s speed=0.0165x elapsed=0:01:18.90    \nframe=   42 fps=0.5 q=45.0 size=     256KiB time=00:00:01.33 bitrate=1573.1kbits/s speed=0.0168x elapsed=0:01:19.44    \nframe=   42 fps=0.5 q=45.0 size=     256KiB time=00:00:01.33 bitrate=1573.1kbits/s speed=0.0167x elapsed=0:01:20.04    \nframe=   42 fps=0.5 q=45.0 size=     256KiB time=00:00:01.33 bitrate=1573.1kbits/s speed=0.0165x elapsed=0:01:20.58    \nframe=   42 fps=0.5 q=45.0 size=     256KiB time=00:00:01.33 bitrate=1573.1kbits/s speed=0.0164x elapsed=0:01:21.09    \nframe=   43 fps=0.5 q=46.0 size=     256KiB time=00:00:01.36 bitrate=1534.8kbits/s speed=0.0167x elapsed=0:01:21.60    \nframe=   43 fps=0.5 q=46.0 size=     256KiB time=00:00:01.36 bitrate=1534.8kbits/s speed=0.0166x elapsed=0:01:22.13    \nframe=   44 fps=0.5 q=46.0 size=     256KiB time=00:00:01.40 bitrate=1498.2kbits/s speed=0.0169x elapsed=0:01:22.67    \nframe=   44 fps=0.5 q=46.0 size=     256KiB time=00:00:01.40 bitrate=1498.2kbits/s speed=0.0168x elapsed=0:01:23.19    \nframe=   44 fps=0.5 q=46.0 size=     256KiB time=00:00:01.40 bitrate=1498.2kbits/s speed=0.0167x elapsed=0:01:23.72    \nframe=   45 fps=0.5 q=46.0 size=     256KiB time=00:00:01.43 bitrate=1463.4kbits/s speed=0.017x elapsed=0:01:24.25    \nframe=   45 fps=0.5 q=46.0 size=     256KiB time=00:00:01.43 bitrate=1463.4kbits/s speed=0.0169x elapsed=0:01:24.76    \nframe=   45 fps=0.5 q=46.0 size=     256KiB time=00:00:01.43 bitrate=1463.4kbits/s speed=0.0168x elapsed=0:01:25.29    \nframe=   46 fps=0.5 q=41.5 size=     256KiB time=00:00:01.46 bitrate=1430.1kbits/s speed=0.0171x elapsed=0:01:25.82    \nframe=   47 fps=0.5 q=45.0 size=     256KiB time=00:00:01.50 bitrate=1398.3kbits/s speed=0.0174x elapsed=0:01:26.36    \nframe=   47 fps=0.5 q=45.0 size=     256KiB time=00:00:01.50 bitrate=1398.3kbits/s speed=0.0173x elapsed=0:01:26.90    \nframe=   47 fps=0.5 q=45.0 size=     256KiB time=00:00:01.50 bitrate=1398.3kbits/s speed=0.0172x elapsed=0:01:27.43    \nframe=   48 fps=0.5 q=46.1 size=     512KiB time=00:00:01.53 bitrate=2735.6kbits/s speed=0.0174x elapsed=0:01:27.95    \nframe=   48 fps=0.5 q=46.1 size=     512KiB time=00:00:01.53 bitrate=2735.6kbits/s speed=0.0173x elapsed=0:01:28.48    \nframe=   48 fps=0.5 q=46.1 size=     512KiB time=00:00:01.53 bitrate=2735.6kbits/s speed=0.0172x elapsed=0:01:29.01    \nframe=   49 fps=0.5 q=46.1 size=     512KiB time=00:00:01.56 bitrate=2677.4kbits/s speed=0.0175x elapsed=0:01:29.55    \nframe=   49 fps=0.5 q=46.1 size=     512KiB time=00:00:01.56 bitrate=2677.4kbits/s speed=0.0174x elapsed=0:01:30.07    \nframe=   49 fps=0.5 q=46.1 size=     512KiB time=00:00:01.56 bitrate=2677.4kbits/s speed=0.0173x elapsed=0:01:30.60    \nframe=   50 fps=0.5 q=46.1 size=     512KiB time=00:00:01.60 bitrate=2621.7kbits/s speed=0.0176x elapsed=0:01:31.14    \nframe=   50 fps=0.5 q=46.1 size=     512KiB time=00:00:01.60 bitrate=2621.7kbits/s speed=0.0175x elapsed=0:01:31.66    \nframe=   50 fps=0.5 q=46.1 size=     512KiB time=00:00:01.60 bitrate=2621.7kbits/s speed=0.0174x elapsed=0:01:32.19    \nframe=   51 fps=0.5 q=41.4 size=     512KiB time=00:00:01.63 bitrate=2568.2kbits/s speed=0.0176x elapsed=0:01:32.72    \nframe=   51 fps=0.5 q=41.4 size=     512KiB time=00:00:01.63 bitrate=2568.2kbits/s speed=0.0175x elapsed=0:01:33.26    \nframe=   51 fps=0.5 q=41.4 size=     512KiB time=00:00:01.63 bitrate=2568.2kbits/s speed=0.0174x elapsed=0:01:33.82    \nframe=   51 fps=0.5 q=41.4 size=     512KiB time=00:00:01.63 bitrate=2568.2kbits/s speed=0.0173x elapsed=0:01:34.34    \nframe=   52 fps=0.5 q=44.9 size=     512KiB time=00:00:01.66 bitrate=2516.8kbits/s speed=0.0176x elapsed=0:01:34.85    \nframe=   52 fps=0.5 q=44.9 size=     512KiB time=00:00:01.66 bitrate=2516.8kbits/s speed=0.0175x elapsed=0:01:35.39    \nframe=   52 fps=0.5 q=44.9 size=     512KiB time=00:00:01.66 bitrate=2516.8kbits/s speed=0.0174x elapsed=0:01:35.93    \nframe=   52 fps=0.5 q=44.9 size=     512KiB time=00:00:01.66 bitrate=2516.8kbits/s speed=0.0173x elapsed=0:01:36.46    \nframe=   53 fps=0.5 q=46.1 size=     512KiB time=00:00:01.70 bitrate=2467.4kbits/s speed=0.0175x elapsed=0:01:37.00    \nframe=   53 fps=0.5 q=46.1 size=     512KiB time=00:00:01.70 bitrate=2467.4kbits/s speed=0.0174x elapsed=0:01:37.53    \nframe=   53 fps=0.5 q=46.1 size=     512KiB time=00:00:01.70 bitrate=2467.4kbits/s speed=0.0173x elapsed=0:01:38.05    \nframe=   54 fps=0.5 q=46.2 size=     512KiB time=00:00:01.73 bitrate=2420.0kbits/s speed=0.0176x elapsed=0:01:38.59    \nframe=   54 fps=0.5 q=46.2 size=     512KiB time=00:00:01.73 bitrate=2420.0kbits/s speed=0.0175x elapsed=0:01:39.12    \nframe=   54 fps=0.5 q=46.2 size=     512KiB time=00:00:01.73 bitrate=2420.0kbits/s speed=0.0174x elapsed=0:01:39.65    \nframe=   54 fps=0.5 q=46.2 size=     512KiB time=00:00:01.73 bitrate=2420.0kbits/s speed=0.0173x elapsed=0:01:40.17    \nframe=   55 fps=0.5 q=46.0 size=     512KiB time=00:00:01.76 bitrate=2374.3kbits/s speed=0.0175x elapsed=0:01:40.69    \nframe=   55 fps=0.5 q=46.0 size=     512KiB time=00:00:01.76 bitrate=2374.3kbits/s speed=0.0175x elapsed=0:01:41.22    \nframe=   55 fps=0.5 q=46.0 size=     512KiB time=00:00:01.76 bitrate=2374.3kbits/s speed=0.0174x elapsed=0:01:41.72    \nframe=   56 fps=0.5 q=41.2 size=     512KiB time=00:00:01.80 bitrate=2330.4kbits/s speed=0.0176x elapsed=0:01:42.26    \nframe=   56 fps=0.5 q=41.2 size=     512KiB time=00:00:01.80 bitrate=2330.4kbits/s speed=0.0175x elapsed=0:01:42.80    \nframe=   56 fps=0.5 q=41.2 size=     512KiB time=00:00:01.80 bitrate=2330.4kbits/s speed=0.0174x elapsed=0:01:43.34    \nframe=   56 fps=0.5 q=41.2 size=     512KiB time=00:00:01.80 bitrate=2330.4kbits/s speed=0.0173x elapsed=0:01:43.87    \nframe=   57 fps=0.5 q=45.0 size=     512KiB time=00:00:01.83 bitrate=2288.0kbits/s speed=0.0176x elapsed=0:01:44.40    \nframe=   58 fps=0.6 q=46.0 size=     512KiB time=00:00:01.86 bitrate=2247.1kbits/s speed=0.0178x elapsed=0:01:44.93    \nframe=   59 fps=0.6 q=46.1 size=     512KiB time=00:00:01.90 bitrate=2207.7kbits/s speed=0.018x elapsed=0:01:45.45    \nframe=   60 fps=0.6 q=46.1 size=     512KiB time=00:00:01.93 bitrate=2169.7kbits/s speed=0.0182x elapsed=0:01:45.97    \nframe=   60 fps=0.6 q=46.1 size=     512KiB time=00:00:01.93 bitrate=2169.7kbits/s speed=0.0182x elapsed=0:01:46.48    \nframe=   61 fps=0.6 q=41.3 size=     512KiB time=00:00:01.96 bitrate=2132.9kbits/s speed=0.0184x elapsed=0:01:47.03    \nframe=   61 fps=0.6 q=41.3 size=     512KiB time=00:00:01.96 bitrate=2132.9kbits/s speed=0.0183x elapsed=0:01:47.61    \nframe=   61 fps=0.6 q=41.3 size=     512KiB time=00:00:01.96 bitrate=2132.9kbits/s speed=0.0182x elapsed=0:01:48.17    \nframe=   61 fps=0.6 q=41.3 size=     512KiB time=00:00:01.96 bitrate=2132.9kbits/s speed=0.0181x elapsed=0:01:48.81    \nframe=   61 fps=0.6 q=41.3 size=     512KiB time=00:00:01.96 bitrate=2132.9kbits/s speed=0.018x elapsed=0:01:49.41    \nframe=   61 fps=0.6 q=41.3 size=     512KiB time=00:00:01.96 bitrate=2132.9kbits/s speed=0.0179x elapsed=0:01:50.05    \nframe=   61 fps=0.6 q=41.3 size=     512KiB time=00:00:01.96 bitrate=2132.9kbits/s speed=0.0178x elapsed=0:01:50.64    \nframe=   61 fps=0.5 q=41.3 size=     512KiB time=00:00:01.96 bitrate=2132.9kbits/s speed=0.0177x elapsed=0:01:51.19    \nframe=   61 fps=0.5 q=41.3 size=     512KiB time=00:00:01.96 bitrate=2132.9kbits/s speed=0.0176x elapsed=0:01:51.73    \nframe=   61 fps=0.5 q=41.3 size=     512KiB time=00:00:01.96 bitrate=2132.9kbits/s speed=0.0175x elapsed=0:01:52.30    \nframe=   62 fps=0.5 q=44.9 size=     512KiB time=00:00:01.96 bitrate=2132.9kbits/s speed=0.0174x elapsed=0:01:52.87    \nframe=   62 fps=0.5 q=44.9 size=     512KiB time=00:00:02.00 bitrate=2097.3kbits/s speed=0.0176x elapsed=0:01:53.44    \nframe=   62 fps=0.5 q=44.9 size=     512KiB time=00:00:02.00 bitrate=2097.3kbits/s speed=0.0175x elapsed=0:01:53.97    \nframe=   64 fps=0.6 q=46.1 size=     512KiB time=00:00:02.06 bitrate=2029.7kbits/s speed=0.018x elapsed=0:01:54.55    \nframe=   64 fps=0.6 q=46.1 size=     512KiB time=00:00:02.06 bitrate=2029.7kbits/s speed=0.018x elapsed=0:01:55.08    \nframe=   64 fps=0.6 q=46.1 size=     512KiB time=00:00:02.06 bitrate=2029.7kbits/s speed=0.0179x elapsed=0:01:55.67    \nframe=   65 fps=0.6 q=46.1 size=     512KiB time=00:00:02.10 bitrate=1997.5kbits/s speed=0.0181x elapsed=0:01:56.20    \nframe=   65 fps=0.6 q=46.1 size=     512KiB time=00:00:02.10 bitrate=1997.5kbits/s speed=0.018x elapsed=0:01:56.73    \nframe=   65 fps=0.6 q=46.1 size=     512KiB time=00:00:02.10 bitrate=1997.5kbits/s speed=0.0179x elapsed=0:01:57.25    \nframe=   66 fps=0.6 q=41.1 size=     512KiB time=00:00:02.13 bitrate=1966.2kbits/s speed=0.0181x elapsed=0:01:57.79    \nframe=   67 fps=0.6 q=44.9 size=     512KiB time=00:00:02.16 bitrate=1936.0kbits/s speed=0.0183x elapsed=0:01:58.29    \nframe=   67 fps=0.6 q=44.9 size=     512KiB time=00:00:02.16 bitrate=1936.0kbits/s speed=0.0182x elapsed=0:01:58.81    \nframe=   67 fps=0.6 q=44.9 size=     512KiB time=00:00:02.16 bitrate=1936.0kbits/s speed=0.0182x elapsed=0:01:59.33    \nframe=   67 fps=0.6 q=44.9 size=     512KiB time=00:00:02.16 bitrate=1936.0kbits/s speed=0.0181x elapsed=0:01:59.85    \nframe=   68 fps=0.6 q=46.0 size=     512KiB time=00:00:02.20 bitrate=1906.7kbits/s speed=0.0183x elapsed=0:02:00.39    \nframe=   69 fps=0.6 q=46.2 size=     512KiB time=00:00:02.23 bitrate=1878.2kbits/s speed=0.0185x elapsed=0:02:00.94    \nframe=   70 fps=0.6 q=46.1 size=     512KiB time=00:00:02.26 bitrate=1850.6kbits/s speed=0.0187x elapsed=0:02:01.48    \nframe=   70 fps=0.6 q=46.1 size=     512KiB time=00:00:02.26 bitrate=1850.6kbits/s speed=0.0186x elapsed=0:02:02.00    \nframe=   70 fps=0.6 q=46.1 size=     512KiB time=00:00:02.26 bitrate=1850.6kbits/s speed=0.0185x elapsed=0:02:02.51    \nframe=   70 fps=0.6 q=46.1 size=     512KiB time=00:00:02.26 bitrate=1850.6kbits/s speed=0.0184x elapsed=0:02:03.07    \nframe=   70 fps=0.6 q=46.1 size=     512KiB time=00:00:02.26 bitrate=1850.6kbits/s speed=0.0183x elapsed=0:02:03.63    \nframe=   70 fps=0.6 q=46.1 size=     512KiB time=00:00:02.26 bitrate=1850.6kbits/s speed=0.0183x elapsed=0:02:04.17    \nframe=   70 fps=0.6 q=46.1 size=     512KiB time=00:00:02.26 bitrate=1850.6kbits/s speed=0.0182x elapsed=0:02:04.69    \nframe=   70 fps=0.6 q=46.1 size=     512KiB time=00:00:02.26 bitrate=1850.6kbits/s speed=0.0181x elapsed=0:02:05.24    \nframe=   71 fps=0.6 q=41.6 size=     512KiB time=00:00:02.30 bitrate=1823.8kbits/s speed=0.0183x elapsed=0:02:05.76    \nframe=   71 fps=0.6 q=41.6 size=     512KiB time=00:00:02.30 bitrate=1823.8kbits/s speed=0.0182x elapsed=0:02:06.29    \nframe=   71 fps=0.6 q=41.6 size=     512KiB time=00:00:02.30 bitrate=1823.8kbits/s speed=0.0181x elapsed=0:02:06.84    \nframe=   72 fps=0.6 q=44.6 size=     512KiB time=00:00:02.33 bitrate=1797.7kbits/s speed=0.0183x elapsed=0:02:07.36    \nframe=   72 fps=0.6 q=44.6 size=     512KiB time=00:00:02.33 bitrate=1797.7kbits/s speed=0.0182x elapsed=0:02:07.88    \nframe=   72 fps=0.6 q=44.6 size=     512KiB time=00:00:02.33 bitrate=1797.7kbits/s speed=0.0182x elapsed=0:02:08.41    \nframe=   74 fps=0.6 q=46.9 size=     512KiB time=00:00:02.40 bitrate=1747.8kbits/s speed=0.0186x elapsed=0:02:08.97    \nframe=   74 fps=0.6 q=46.9 size=     512KiB time=00:00:02.40 bitrate=1747.8kbits/s speed=0.0185x elapsed=0:02:09.52    \nframe=   74 fps=0.6 q=46.9 size=     512KiB time=00:00:02.40 bitrate=1747.8kbits/s speed=0.0184x elapsed=0:02:10.17    \nframe=   74 fps=0.6 q=46.9 size=     512KiB time=00:00:02.40 bitrate=1747.8kbits/s speed=0.0183x elapsed=0:02:10.85    \nframe=   74 fps=0.6 q=46.9 size=     512KiB time=00:00:02.40 bitrate=1747.8kbits/s speed=0.0183x elapsed=0:02:11.42    \nframe=   74 fps=0.6 q=46.9 size=     512KiB time=00:00:02.40 bitrate=1747.8kbits/s speed=0.0182x elapsed=0:02:11.97    \nframe=   75 fps=0.6 q=41.4 size=     512KiB time=00:00:02.43 bitrate=1723.8kbits/s speed=0.0184x elapsed=0:02:12.48    \nframe=   75 fps=0.6 q=41.4 size=     512KiB time=00:00:02.43 bitrate=1723.8kbits/s speed=0.0183x elapsed=0:02:13.03    \nframe=   75 fps=0.6 q=41.4 size=     512KiB time=00:00:02.43 bitrate=1723.8kbits/s speed=0.0182x elapsed=0:02:13.59    \nframe=   76 fps=0.6 q=44.6 size=     768KiB time=00:00:02.46 bitrate=2550.7kbits/s speed=0.0184x elapsed=0:02:14.11    \nframe=   76 fps=0.6 q=44.6 size=     768KiB time=00:00:02.46 bitrate=2550.7kbits/s speed=0.0183x elapsed=0:02:14.63    \nframe=   76 fps=0.6 q=44.6 size=     768KiB time=00:00:02.46 bitrate=2550.7kbits/s speed=0.0183x elapsed=0:02:15.15    \nframe=   76 fps=0.6 q=44.6 size=     768KiB time=00:00:02.46 bitrate=2550.7kbits/s speed=0.0182x elapsed=0:02:15.69    \nframe=   77 fps=0.6 q=46.1 size=     768KiB time=00:00:02.50 bitrate=2516.7kbits/s speed=0.0184x elapsed=0:02:16.23    \nframe=   79 fps=0.6 q=46.1 size=     768KiB time=00:00:02.56 bitrate=2451.4kbits/s speed=0.0188x elapsed=0:02:16.79    \nframe=   79 fps=0.6 q=46.1 size=     768KiB time=00:00:02.56 bitrate=2451.4kbits/s speed=0.0187x elapsed=0:02:17.35    \nframe=   79 fps=0.6 q=46.1 size=     768KiB time=00:00:02.56 bitrate=2451.4kbits/s speed=0.0186x elapsed=0:02:17.90    \nframe=   79 fps=0.6 q=46.1 size=     768KiB time=00:00:02.56 bitrate=2451.4kbits/s speed=0.0185x elapsed=0:02:18.44    \nframe=   80 fps=0.6 q=41.5 size=     768KiB time=00:00:02.60 bitrate=2419.9kbits/s speed=0.0187x elapsed=0:02:19.01    \nframe=   80 fps=0.6 q=41.5 size=     768KiB time=00:00:02.60 bitrate=2419.9kbits/s speed=0.0186x elapsed=0:02:19.53    \nframe=   80 fps=0.6 q=41.5 size=     768KiB time=00:00:02.60 bitrate=2419.9kbits/s speed=0.0186x elapsed=0:02:20.08    \nframe=   80 fps=0.6 q=41.5 size=     768KiB time=00:00:02.60 bitrate=2419.9kbits/s speed=0.0185x elapsed=0:02:20.63    \nframe=   80 fps=0.6 q=41.5 size=     768KiB time=00:00:02.60 bitrate=2419.9kbits/s speed=0.0184x elapsed=0:02:21.16    \nframe=   80 fps=0.6 q=41.5 size=     768KiB time=00:00:02.60 bitrate=2419.9kbits/s speed=0.0183x elapsed=0:02:21.70    \nframe=   80 fps=0.6 q=41.5 size=     768KiB time=00:00:02.60 bitrate=2419.9kbits/s speed=0.0183x elapsed=0:02:22.23    \nframe=   81 fps=0.6 q=43.2 size=     768KiB time=00:00:02.63 bitrate=2389.3kbits/s speed=0.0184x elapsed=0:02:22.79    \nframe=   81 fps=0.6 q=43.2 size=     768KiB time=00:00:02.63 bitrate=2389.3kbits/s speed=0.0184x elapsed=0:02:23.32    \nframe=   82 fps=0.6 q=46.2 size=     768KiB time=00:00:02.66 bitrate=2359.4kbits/s speed=0.0185x elapsed=0:02:23.84    \nframe=   82 fps=0.6 q=46.2 size=     768KiB time=00:00:02.66 bitrate=2359.4kbits/s speed=0.0185x elapsed=0:02:24.37    \nframe=   82 fps=0.6 q=46.2 size=     768KiB time=00:00:02.66 bitrate=2359.4kbits/s speed=0.0184x elapsed=0:02:24.91    \nframe=   82 fps=0.6 q=46.2 size=     768KiB time=00:00:02.66 bitrate=2359.4kbits/s speed=0.0183x elapsed=0:02:25.47    \nframe=   84 fps=0.6 q=46.9 size=     768KiB time=00:00:02.70 bitrate=2330.3kbits/s speed=0.0185x elapsed=0:02:26.01    \nframe=   84 fps=0.6 q=46.9 size=     768KiB time=00:00:02.73 bitrate=2301.9kbits/s speed=0.0186x elapsed=0:02:26.58    \nframe=   84 fps=0.6 q=46.9 size=     768KiB time=00:00:02.73 bitrate=2301.9kbits/s speed=0.0186x elapsed=0:02:27.15    \nframe=   85 fps=0.6 q=41.4 size=     768KiB time=00:00:02.76 bitrate=2274.1kbits/s speed=0.0187x elapsed=0:02:27.70    \nframe=   85 fps=0.6 q=41.4 size=     768KiB time=00:00:02.76 bitrate=2274.1kbits/s speed=0.0187x elapsed=0:02:28.23    \nframe=   85 fps=0.6 q=41.4 size=     768KiB time=00:00:02.76 bitrate=2274.1kbits/s speed=0.0186x elapsed=0:02:28.74    \nframe=   85 fps=0.6 q=41.4 size=     768KiB time=00:00:02.76 bitrate=2274.1kbits/s speed=0.0185x elapsed=0:02:29.30    \nframe=   86 fps=0.6 q=44.6 size=     768KiB time=00:00:02.80 bitrate=2247.1kbits/s speed=0.0187x elapsed=0:02:29.84    \nframe=   86 fps=0.6 q=44.6 size=     768KiB time=00:00:02.80 bitrate=2247.1kbits/s speed=0.0186x elapsed=0:02:30.42    \nframe=   86 fps=0.6 q=44.6 size=     768KiB time=00:00:02.80 bitrate=2247.1kbits/s speed=0.0185x elapsed=0:02:30.95    \nframe=   87 fps=0.6 q=46.1 size=     768KiB time=00:00:02.83 bitrate=2220.6kbits/s speed=0.0187x elapsed=0:02:31.48    \nframe=   87 fps=0.6 q=46.1 size=     768KiB time=00:00:02.83 bitrate=2220.6kbits/s speed=0.0186x elapsed=0:02:32.04    \nframe=   88 fps=0.6 q=46.2 size=     768KiB time=00:00:02.86 bitrate=2194.8kbits/s speed=0.0188x elapsed=0:02:32.57    \nframe=   89 fps=0.6 q=41.4 size=     768KiB time=00:00:02.90 bitrate=2169.6kbits/s speed=0.0189x elapsed=0:02:33.12    \nframe=   89 fps=0.6 q=41.4 size=     768KiB time=00:00:02.90 bitrate=2169.6kbits/s speed=0.0189x elapsed=0:02:33.63    \nframe=   89 fps=0.6 q=41.4 size=     768KiB time=00:00:02.90 bitrate=2169.6kbits/s speed=0.0188x elapsed=0:02:34.15    \nframe=   89 fps=0.6 q=41.4 size=     768KiB time=00:00:02.90 bitrate=2169.6kbits/s speed=0.0187x elapsed=0:02:34.66    \nframe=   89 fps=0.6 q=41.4 size=     768KiB time=00:00:02.90 bitrate=2169.6kbits/s speed=0.0187x elapsed=0:02:35.18    \nframe=   90 fps=0.6 q=44.6 size=     768KiB time=00:00:02.93 bitrate=2144.9kbits/s speed=0.0188x elapsed=0:02:35.73    \nframe=   90 fps=0.6 q=44.6 size=     768KiB time=00:00:02.93 bitrate=2144.9kbits/s speed=0.0188x elapsed=0:02:36.26    \nframe=   92 fps=0.6 q=46.2 size=     768KiB time=00:00:03.00 bitrate=2097.3kbits/s speed=0.0191x elapsed=0:02:36.77    \nframe=   93 fps=0.6 q=46.1 size=     768KiB time=00:00:03.03 bitrate=2074.2kbits/s speed=0.0193x elapsed=0:02:37.29    \nframe=   94 fps=0.6 q=41.4 size=     768KiB time=00:00:03.06 bitrate=2051.7kbits/s speed=0.0194x elapsed=0:02:37.81    \nframe=   94 fps=0.6 q=41.4 size=     768KiB time=00:00:03.06 bitrate=2051.7kbits/s speed=0.0194x elapsed=0:02:38.32    \nframe=   94 fps=0.6 q=41.4 size=     768KiB time=00:00:03.06 bitrate=2051.7kbits/s speed=0.0193x elapsed=0:02:38.84    \nframe=   94 fps=0.6 q=41.4 size=     768KiB time=00:00:03.06 bitrate=2051.7kbits/s speed=0.0192x elapsed=0:02:39.36    \nframe=   95 fps=0.6 q=44.5 size=     768KiB time=00:00:03.10 bitrate=2029.6kbits/s speed=0.0194x elapsed=0:02:39.88    \nframe=   95 fps=0.6 q=44.5 size=     768KiB time=00:00:03.10 bitrate=2029.6kbits/s speed=0.0193x elapsed=0:02:40.40    \nframe=   97 fps=0.6 q=46.1 size=     768KiB time=00:00:03.16 bitrate=1986.9kbits/s speed=0.0197x elapsed=0:02:40.92    \nframe=   98 fps=0.6 q=46.1 size=     768KiB time=00:00:03.20 bitrate=1966.2kbits/s speed=0.0198x elapsed=0:02:41.46    \nframe=   98 fps=0.6 q=46.1 size=     768KiB time=00:00:03.20 bitrate=1966.2kbits/s speed=0.0198x elapsed=0:02:41.98    \nframe=   98 fps=0.6 q=46.1 size=     768KiB time=00:00:03.20 bitrate=1966.2kbits/s speed=0.0197x elapsed=0:02:42.51    \nframe=   99 fps=0.6 q=41.1 size=     768KiB time=00:00:03.23 bitrate=1945.9kbits/s speed=0.0198x elapsed=0:02:43.05    \nframe=   99 fps=0.6 q=41.1 size=     768KiB time=00:00:03.23 bitrate=1945.9kbits/s speed=0.0198x elapsed=0:02:43.57    \nframe=   99 fps=0.6 q=41.1 size=     768KiB time=00:00:03.23 bitrate=1945.9kbits/s speed=0.0197x elapsed=0:02:44.09    \nframe=  100 fps=0.6 q=43.3 size=     768KiB time=00:00:03.26 bitrate=1926.1kbits/s speed=0.0198x elapsed=0:02:44.63    \nframe=  100 fps=0.6 q=43.3 size=     768KiB time=00:00:03.26 bitrate=1926.1kbits/s speed=0.0198x elapsed=0:02:45.14    \nframe=  100 fps=0.6 q=43.3 size=     768KiB time=00:00:03.26 bitrate=1926.1kbits/s speed=0.0197x elapsed=0:02:45.67    \nframe=  100 fps=0.6 q=43.3 size=     768KiB time=00:00:03.26 bitrate=1926.1kbits/s speed=0.0197x elapsed=0:02:46.19    \nframe=  102 fps=0.6 q=46.1 size=    1024KiB time=00:00:03.33 bitrate=2516.7kbits/s speed=0.02x elapsed=0:02:46.70    \nframe=  103 fps=0.6 q=46.1 size=    1024KiB time=00:00:03.36 bitrate=2491.8kbits/s speed=0.0201x elapsed=0:02:47.23    \nframe=  103 fps=0.6 q=46.1 size=    1024KiB time=00:00:03.36 bitrate=2491.8kbits/s speed=0.0201x elapsed=0:02:47.74    \nframe=  103 fps=0.6 q=46.1 size=    1024KiB time=00:00:03.36 bitrate=2491.8kbits/s speed=0.02x elapsed=0:02:48.29    \nframe=  103 fps=0.6 q=46.1 size=    1024KiB time=00:00:03.36 bitrate=2491.8kbits/s speed=0.0199x elapsed=0:02:48.79    \nframe=  104 fps=0.6 q=41.4 size=    1024KiB time=00:00:03.40 bitrate=2467.3kbits/s speed=0.0201x elapsed=0:02:49.31    \nframe=  104 fps=0.6 q=41.4 size=    1024KiB time=00:00:03.40 bitrate=2467.3kbits/s speed=0.02x elapsed=0:02:49.85    \nframe=  104 fps=0.6 q=41.4 size=    1024KiB time=00:00:03.40 bitrate=2467.3kbits/s speed=0.02x elapsed=0:02:50.36    \nframe=  105 fps=0.6 q=45.0 size=    1024KiB time=00:00:03.43 bitrate=2443.4kbits/s speed=0.0201x elapsed=0:02:50.89    \nframe=  105 fps=0.6 q=45.0 size=    1024KiB time=00:00:03.43 bitrate=2443.4kbits/s speed=0.02x elapsed=0:02:51.40    \nframe=  106 fps=0.6 q=46.1 size=    1024KiB time=00:00:03.46 bitrate=2419.9kbits/s speed=0.0202x elapsed=0:02:51.94    \nframe=  107 fps=0.6 q=46.1 size=    1024KiB time=00:00:03.50 bitrate=2396.8kbits/s speed=0.0203x elapsed=0:02:52.46    \nframe=  108 fps=0.6 q=46.2 size=    1024KiB time=00:00:03.53 bitrate=2374.2kbits/s speed=0.0204x elapsed=0:02:53.01    \nframe=  108 fps=0.6 q=46.2 size=    1024KiB time=00:00:03.53 bitrate=2374.2kbits/s speed=0.0204x elapsed=0:02:53.53    \nframe=  108 fps=0.6 q=46.2 size=    1024KiB time=00:00:03.53 bitrate=2374.2kbits/s speed=0.0203x elapsed=0:02:54.08    \nframe=  108 fps=0.6 q=46.2 size=    1024KiB time=00:00:03.53 bitrate=2374.2kbits/s speed=0.0202x elapsed=0:02:54.62    \nframe=  108 fps=0.6 q=46.2 size=    1024KiB time=00:00:03.53 bitrate=2374.2kbits/s speed=0.0202x elapsed=0:02:55.13    \nframe=  109 fps=0.6 q=41.2 size=    1024KiB time=00:00:03.56 bitrate=2352.0kbits/s speed=0.0203x elapsed=0:02:55.67    \nframe=  109 fps=0.6 q=41.2 size=    1024KiB time=00:00:03.56 bitrate=2352.0kbits/s speed=0.0202x elapsed=0:02:56.19    \nframe=  109 fps=0.6 q=41.2 size=    1024KiB time=00:00:03.56 bitrate=2352.0kbits/s speed=0.0202x elapsed=0:02:56.73    \nframe=  110 fps=0.6 q=45.0 size=    1024KiB time=00:00:03.60 bitrate=2330.3kbits/s speed=0.0203x elapsed=0:02:57.25    \nframe=  110 fps=0.6 q=45.0 size=    1024KiB time=00:00:03.60 bitrate=2330.3kbits/s speed=0.0202x elapsed=0:02:57.78    \nframe=  110 fps=0.6 q=45.0 size=    1024KiB time=00:00:03.60 bitrate=2330.3kbits/s speed=0.0202x elapsed=0:02:58.31    \nframe=  110 fps=0.6 q=45.0 size=    1024KiB time=00:00:03.60 bitrate=2330.3kbits/s speed=0.0201x elapsed=0:02:58.87    \nframe=  110 fps=0.6 q=45.0 size=    1024KiB time=00:00:03.60 bitrate=2330.3kbits/s speed=0.0201x elapsed=0:02:59.39    \nframe=  111 fps=0.6 q=46.1 size=    1024KiB time=00:00:03.63 bitrate=2308.9kbits/s speed=0.0202x elapsed=0:02:59.96    \nframe=  112 fps=0.6 q=46.1 size=    1024KiB time=00:00:03.66 bitrate=2287.9kbits/s speed=0.0203x elapsed=0:03:00.58    \nframe=  112 fps=0.6 q=46.1 size=    1024KiB time=00:00:03.66 bitrate=2287.9kbits/s speed=0.0202x elapsed=0:03:01.15    \nframe=  113 fps=0.6 q=46.1 size=    1024KiB time=00:00:03.70 bitrate=2267.3kbits/s speed=0.0204x elapsed=0:03:01.72    \nframe=  113 fps=0.6 q=46.1 size=    1024KiB time=00:00:03.70 bitrate=2267.3kbits/s speed=0.0203x elapsed=0:03:02.30    \nframe=  113 fps=0.6 q=46.1 size=    1024KiB time=00:00:03.70 bitrate=2267.3kbits/s speed=0.0202x elapsed=0:03:02.93    \nframe=  113 fps=0.6 q=46.1 size=    1024KiB time=00:00:03.70 bitrate=2267.3kbits/s speed=0.0202x elapsed=0:03:03.57    \nframe=  113 fps=0.6 q=46.1 size=    1024KiB time=00:00:03.70 bitrate=2267.3kbits/s speed=0.0201x elapsed=0:03:04.18    \nframe=  113 fps=0.6 q=46.1 size=    1024KiB time=00:00:03.70 bitrate=2267.3kbits/s speed=0.02x elapsed=0:03:04.87    \nframe=  113 fps=0.6 q=46.1 size=    1024KiB time=00:00:03.70 bitrate=2267.3kbits/s speed=0.02x elapsed=0:03:05.42    \nframe=  113 fps=0.6 q=46.1 size=    1024KiB time=00:00:03.70 bitrate=2267.3kbits/s speed=0.0199x elapsed=0:03:05.96    \nframe=  113 fps=0.6 q=46.1 size=    1024KiB time=00:00:03.70 bitrate=2267.3kbits/s speed=0.0198x elapsed=0:03:06.67    \nframe=  113 fps=0.6 q=46.1 size=    1024KiB time=00:00:03.70 bitrate=2267.3kbits/s speed=0.0197x elapsed=0:03:07.36    \nframe=  113 fps=0.6 q=46.1 size=    1024KiB time=00:00:03.70 bitrate=2267.3kbits/s speed=0.0197x elapsed=0:03:07.92    \nframe=  113 fps=0.6 q=46.1 size=    1024KiB time=00:00:03.70 bitrate=2267.3kbits/s speed=0.0196x elapsed=0:03:08.52    \nframe=  113 fps=0.6 q=46.1 size=    1024KiB time=00:00:03.70 bitrate=2267.3kbits/s speed=0.0196x elapsed=0:03:09.23    \nframe=  113 fps=0.6 q=46.1 size=    1024KiB time=00:00:03.70 bitrate=2267.3kbits/s speed=0.0195x elapsed=0:03:09.89    \nframe=  113 fps=0.6 q=46.1 size=    1024KiB time=00:00:03.70 bitrate=2267.3kbits/s speed=0.0194x elapsed=0:03:10.50    \nframe=  113 fps=0.6 q=46.1 size=    1024KiB time=00:00:03.70 bitrate=2267.3kbits/s speed=0.0193x elapsed=0:03:11.26    \nframe=  113 fps=0.6 q=46.1 size=    1024KiB time=00:00:03.70 bitrate=2267.3kbits/s speed=0.0193x elapsed=0:03:12.00    \nframe=  113 fps=0.6 q=46.1 size=    1024KiB time=00:00:03.70 bitrate=2267.3kbits/s speed=0.0192x elapsed=0:03:12.72    \nframe=  113 fps=0.6 q=46.1 size=    1024KiB time=00:00:03.70 bitrate=2267.3kbits/s speed=0.0191x elapsed=0:03:13.44    \nframe=  113 fps=0.6 q=46.1 size=    1024KiB time=00:00:03.70 bitrate=2267.3kbits/s speed=0.0191x elapsed=0:03:14.16    \nframe=  113 fps=0.6 q=46.1 size=    1024KiB time=00:00:03.70 bitrate=2267.3kbits/s speed=0.019x elapsed=0:03:14.71    \nframe=  113 fps=0.6 q=46.1 size=    1024KiB time=00:00:03.70 bitrate=2267.3kbits/s speed=0.0189x elapsed=0:03:15.37    \nframe=  113 fps=0.6 q=46.1 size=    1024KiB time=00:00:03.70 bitrate=2267.3kbits/s speed=0.0189x elapsed=0:03:16.11    \nframe=  113 fps=0.6 q=46.1 size=    1024KiB time=00:00:03.70 bitrate=2267.3kbits/s speed=0.0188x elapsed=0:03:16.84    \nframe=  113 fps=0.6 q=46.1 size=    1024KiB time=00:00:03.70 bitrate=2267.3kbits/s speed=0.0187x elapsed=0:03:17.49    \nframe=  114 fps=0.6 q=41.3 size=    1024KiB time=00:00:03.73 bitrate=2247.0kbits/s speed=0.0188x elapsed=0:03:18.07    \nframe=  114 fps=0.6 q=41.3 size=    1024KiB time=00:00:03.73 bitrate=2247.0kbits/s speed=0.0188x elapsed=0:03:18.77    \nframe=  114 fps=0.6 q=41.3 size=    1024KiB time=00:00:03.73 bitrate=2247.0kbits/s speed=0.0187x elapsed=0:03:19.40    \nframe=  114 fps=0.6 q=41.3 size=    1024KiB time=00:00:03.73 bitrate=2247.0kbits/s speed=0.0187x elapsed=0:03:20.06    \nframe=  114 fps=0.6 q=41.3 size=    1024KiB time=00:00:03.73 bitrate=2247.0kbits/s speed=0.0186x elapsed=0:03:20.62    \nframe=  114 fps=0.6 q=41.3 size=    1024KiB time=00:00:03.73 bitrate=2247.0kbits/s speed=0.0185x elapsed=0:03:21.32    \nframe=  114 fps=0.6 q=41.3 size=    1024KiB time=00:00:03.73 bitrate=2247.0kbits/s speed=0.0185x elapsed=0:03:22.02    \nframe=  114 fps=0.6 q=41.3 size=    1024KiB time=00:00:03.73 bitrate=2247.0kbits/s speed=0.0184x elapsed=0:03:22.77    \nframe=  114 fps=0.6 q=41.3 size=    1024KiB time=00:00:03.73 bitrate=2247.0kbits/s speed=0.0183x elapsed=0:03:23.45    \nframe=  114 fps=0.6 q=41.3 size=    1024KiB time=00:00:03.73 bitrate=2247.0kbits/s speed=0.0183x elapsed=0:03:24.00    \nframe=  114 fps=0.6 q=41.3 size=    1024KiB time=00:00:03.73 bitrate=2247.0kbits/s speed=0.0182x elapsed=0:03:24.64    \nframe=  114 fps=0.6 q=41.3 size=    1024KiB time=00:00:03.73 bitrate=2247.0kbits/s speed=0.0182x elapsed=0:03:25.32    \nframe=  114 fps=0.6 q=41.3 size=    1024KiB time=00:00:03.73 bitrate=2247.0kbits/s speed=0.0181x elapsed=0:03:25.99    \nframe=  114 fps=0.6 q=41.3 size=    1024KiB time=00:00:03.73 bitrate=2247.0kbits/s speed=0.0181x elapsed=0:03:26.62    \nframe=  114 fps=0.6 q=41.3 size=    1024KiB time=00:00:03.73 bitrate=2247.0kbits/s speed=0.018x elapsed=0:03:27.18    \nframe=  114 fps=0.5 q=41.3 size=    1024KiB time=00:00:03.73 bitrate=2247.0kbits/s speed=0.018x elapsed=0:03:27.79    \nframe=  114 fps=0.5 q=41.3 size=    1024KiB time=00:00:03.73 bitrate=2247.0kbits/s speed=0.0179x elapsed=0:03:28.47    \nframe=  114 fps=0.5 q=41.3 size=    1024KiB time=00:00:03.73 bitrate=2247.0kbits/s speed=0.0178x elapsed=0:03:29.17    \nframe=  114 fps=0.5 q=41.3 size=    1024KiB time=00:00:03.73 bitrate=2247.0kbits/s speed=0.0178x elapsed=0:03:29.85    \nframe=  114 fps=0.5 q=41.3 size=    1024KiB time=00:00:03.73 bitrate=2247.0kbits/s speed=0.0177x elapsed=0:03:30.55    \nframe=  114 fps=0.5 q=41.3 size=    1024KiB time=00:00:03.73 bitrate=2247.0kbits/s speed=0.0177x elapsed=0:03:31.09    \nframe=  114 fps=0.5 q=41.3 size=    1024KiB time=00:00:03.73 bitrate=2247.0kbits/s speed=0.0176x elapsed=0:03:31.64    \nframe=  115 fps=0.5 q=44.9 size=    1024KiB time=00:00:03.76 bitrate=2227.2kbits/s speed=0.0178x elapsed=0:03:32.16    \nframe=  115 fps=0.5 q=44.9 size=    1024KiB time=00:00:03.76 bitrate=2227.2kbits/s speed=0.0177x elapsed=0:03:32.69    \nframe=  115 fps=0.5 q=44.9 size=    1024KiB time=00:00:03.76 bitrate=2227.2kbits/s speed=0.0177x elapsed=0:03:33.20    \nframe=  116 fps=0.5 q=46.0 size=    1024KiB time=00:00:03.80 bitrate=2207.6kbits/s speed=0.0178x elapsed=0:03:33.72    \nframe=  117 fps=0.5 q=46.0 size=    1024KiB time=00:00:03.83 bitrate=2188.4kbits/s speed=0.0179x elapsed=0:03:34.28    \nframe=  118 fps=0.5 q=46.0 size=    1024KiB time=00:00:03.86 bitrate=2169.6kbits/s speed=0.018x elapsed=0:03:34.79    \nframe=  118 fps=0.5 q=46.0 size=    1024KiB time=00:00:03.86 bitrate=2169.6kbits/s speed=0.018x elapsed=0:03:35.31    \nframe=  118 fps=0.5 q=46.0 size=    1024KiB time=00:00:03.86 bitrate=2169.6kbits/s speed=0.0179x elapsed=0:03:35.83    \nframe=  119 fps=0.6 q=41.1 size=    1024KiB time=00:00:03.90 bitrate=2151.0kbits/s speed=0.018x elapsed=0:03:36.36    \nframe=  119 fps=0.5 q=41.1 size=    1024KiB time=00:00:03.90 bitrate=2151.0kbits/s speed=0.018x elapsed=0:03:36.90    \nframe=  119 fps=0.5 q=41.1 size=    1024KiB time=00:00:03.90 bitrate=2151.0kbits/s speed=0.0179x elapsed=0:03:37.42    \nframe=  119 fps=0.5 q=41.1 size=    1024KiB time=00:00:03.90 bitrate=2151.0kbits/s speed=0.0179x elapsed=0:03:37.93    \nframe=  120 fps=0.5 q=44.5 size=    1024KiB time=00:00:03.93 bitrate=2132.8kbits/s speed=0.018x elapsed=0:03:38.48    \nframe=  121 fps=0.6 q=46.0 size=    1024KiB time=00:00:03.96 bitrate=2114.9kbits/s speed=0.0181x elapsed=0:03:39.00    \nframe=  122 fps=0.6 q=46.0 size=    1024KiB time=00:00:04.00 bitrate=2097.2kbits/s speed=0.0182x elapsed=0:03:39.51    \nframe=  122 fps=0.6 q=46.0 size=    1024KiB time=00:00:04.00 bitrate=2097.2kbits/s speed=0.0182x elapsed=0:03:40.05    \nframe=  122 fps=0.6 q=46.0 size=    1024KiB time=00:00:04.00 bitrate=2097.2kbits/s speed=0.0181x elapsed=0:03:40.56    \nframe=  123 fps=0.6 q=41.2 size=    1024KiB time=00:00:04.03 bitrate=2079.9kbits/s speed=0.0182x elapsed=0:03:41.07    \nframe=  123 fps=0.6 q=41.2 size=    1024KiB time=00:00:04.03 bitrate=2079.9kbits/s speed=0.0182x elapsed=0:03:41.61    \nframe=  123 fps=0.6 q=41.2 size=    1024KiB time=00:00:04.03 bitrate=2079.9kbits/s speed=0.0182x elapsed=0:03:42.17    \nframe=  124 fps=0.6 q=44.5 size=    1024KiB time=00:00:04.06 bitrate=2062.9kbits/s speed=0.0183x elapsed=0:03:42.70    \nframe=  124 fps=0.6 q=44.5 size=    1024KiB time=00:00:04.06 bitrate=2062.9kbits/s speed=0.0182x elapsed=0:03:43.24    \nframe=  125 fps=0.6 q=46.0 size=    1024KiB time=00:00:04.10 bitrate=2046.1kbits/s speed=0.0183x elapsed=0:03:43.78    \nframe=  127 fps=0.6 q=41.1 size=    1280KiB time=00:00:04.16 bitrate=2516.7kbits/s speed=0.0186x elapsed=0:03:44.31    \nframe=  127 fps=0.6 q=41.1 size=    1280KiB time=00:00:04.16 bitrate=2516.7kbits/s speed=0.0185x elapsed=0:03:44.83    \nframe=  127 fps=0.6 q=41.1 size=    1280KiB time=00:00:04.16 bitrate=2516.7kbits/s speed=0.0185x elapsed=0:03:45.35    \nframe=  128 fps=0.6 q=44.9 size=    1280KiB time=00:00:04.20 bitrate=2496.7kbits/s speed=0.0186x elapsed=0:03:45.86    \nframe=  128 fps=0.6 q=44.9 size=    1280KiB time=00:00:04.20 bitrate=2496.7kbits/s speed=0.0186x elapsed=0:03:46.39    \nframe=  128 fps=0.6 q=44.9 size=    1280KiB time=00:00:04.20 bitrate=2496.7kbits/s speed=0.0185x elapsed=0:03:46.94    \nframe=  129 fps=0.6 q=46.0 size=    1280KiB time=00:00:04.23 bitrate=2477.0kbits/s speed=0.0186x elapsed=0:03:47.45    \nframe=  131 fps=0.6 q=46.1 size=    1280KiB time=00:00:04.30 bitrate=2438.6kbits/s speed=0.0189x elapsed=0:03:47.99    \nframe=  131 fps=0.6 q=46.1 size=    1280KiB time=00:00:04.30 bitrate=2438.6kbits/s speed=0.0188x elapsed=0:03:48.52    \nframe=  131 fps=0.6 q=46.1 size=    1280KiB time=00:00:04.30 bitrate=2438.6kbits/s speed=0.0188x elapsed=0:03:49.02    \nframe=  131 fps=0.6 q=46.1 size=    1280KiB time=00:00:04.30 bitrate=2438.6kbits/s speed=0.0187x elapsed=0:03:49.54    \nframe=  132 fps=0.6 q=41.3 size=    1280KiB time=00:00:04.33 bitrate=2419.9kbits/s speed=0.0188x elapsed=0:03:50.08    \nframe=  132 fps=0.6 q=41.3 size=    1280KiB time=00:00:04.33 bitrate=2419.9kbits/s speed=0.0188x elapsed=0:03:50.61    \nframe=  132 fps=0.6 q=41.3 size=    1280KiB time=00:00:04.33 bitrate=2419.9kbits/s speed=0.0187x elapsed=0:03:51.13    \nframe=  132 fps=0.6 q=41.3 size=    1280KiB time=00:00:04.33 bitrate=2419.9kbits/s speed=0.0187x elapsed=0:03:51.68    \nframe=  132 fps=0.6 q=41.3 size=    1280KiB time=00:00:04.33 bitrate=2419.9kbits/s speed=0.0187x elapsed=0:03:52.20    \nframe=  132 fps=0.6 q=41.3 size=    1280KiB time=00:00:04.33 bitrate=2419.9kbits/s speed=0.0186x elapsed=0:03:52.75    \nframe=  133 fps=0.6 q=42.7 size=    1280KiB time=00:00:04.36 bitrate=2401.4kbits/s speed=0.0187x elapsed=0:03:53.28    \nframe=  133 fps=0.6 q=42.7 size=    1280KiB time=00:00:04.36 bitrate=2401.4kbits/s speed=0.0187x elapsed=0:03:53.81    \nframe=  133 fps=0.6 q=42.7 size=    1280KiB time=00:00:04.36 bitrate=2401.4kbits/s speed=0.0186x elapsed=0:03:54.33    \nframe=  133 fps=0.6 q=42.7 size=    1280KiB time=00:00:04.36 bitrate=2401.4kbits/s speed=0.0186x elapsed=0:03:54.83    \nframe=  135 fps=0.6 q=46.0 size=    1280KiB time=00:00:04.43 bitrate=2365.3kbits/s speed=0.0188x elapsed=0:03:55.36    \nframe=  136 fps=0.6 q=46.1 size=    1280KiB time=00:00:04.46 bitrate=2347.6kbits/s speed=0.0189x elapsed=0:03:55.94    \nframe=  136 fps=0.6 q=46.1 size=    1280KiB time=00:00:04.46 bitrate=2347.6kbits/s speed=0.0189x elapsed=0:03:56.47    \nframe=  136 fps=0.6 q=46.1 size=    1280KiB time=00:00:04.46 bitrate=2347.6kbits/s speed=0.0188x elapsed=0:03:57.01    \nframe=  136 fps=0.6 q=46.1 size=    1280KiB time=00:00:04.46 bitrate=2347.6kbits/s speed=0.0188x elapsed=0:03:57.55    \nframe=  136 fps=0.6 q=46.1 size=    1280KiB time=00:00:04.46 bitrate=2347.6kbits/s speed=0.0188x elapsed=0:03:58.13    \nframe=  136 fps=0.6 q=46.1 size=    1280KiB time=00:00:04.46 bitrate=2347.6kbits/s speed=0.0187x elapsed=0:03:58.76    \nframe=  136 fps=0.6 q=46.1 size=    1280KiB time=00:00:04.46 bitrate=2347.6kbits/s speed=0.0187x elapsed=0:03:59.37    \nframe=  137 fps=0.6 q=41.5 size=    1280KiB time=00:00:04.50 bitrate=2330.2kbits/s speed=0.0188x elapsed=0:03:59.91    \nframe=  137 fps=0.6 q=41.5 size=    1280KiB time=00:00:04.50 bitrate=2330.2kbits/s speed=0.0187x elapsed=0:04:00.48    \nframe=  137 fps=0.6 q=41.5 size=    1280KiB time=00:00:04.50 bitrate=2330.2kbits/s speed=0.0187x elapsed=0:04:01.00    \nframe=  137 fps=0.6 q=41.5 size=    1280KiB time=00:00:04.50 bitrate=2330.2kbits/s speed=0.0186x elapsed=0:04:01.53    \nframe=  137 fps=0.6 q=41.5 size=    1280KiB time=00:00:04.50 bitrate=2330.2kbits/s speed=0.0186x elapsed=0:04:02.10    \nframe=  137 fps=0.6 q=41.5 size=    1280KiB time=00:00:04.50 bitrate=2330.2kbits/s speed=0.0185x elapsed=0:04:02.66    \nframe=  137 fps=0.6 q=41.5 size=    1280KiB time=00:00:04.50 bitrate=2330.2kbits/s speed=0.0185x elapsed=0:04:03.23    \nframe=  137 fps=0.6 q=41.5 size=    1280KiB time=00:00:04.50 bitrate=2330.2kbits/s speed=0.0184x elapsed=0:04:03.90    \nframe=  137 fps=0.6 q=41.5 size=    1280KiB time=00:00:04.50 bitrate=2330.2kbits/s speed=0.0184x elapsed=0:04:04.47    \nframe=  137 fps=0.6 q=41.5 size=    1280KiB time=00:00:04.50 bitrate=2330.2kbits/s speed=0.0184x elapsed=0:04:05.05    \nframe=  137 fps=0.6 q=41.5 size=    1280KiB time=00:00:04.50 bitrate=2330.2kbits/s speed=0.0183x elapsed=0:04:05.74    \nframe=  137 fps=0.6 q=41.5 size=    1280KiB time=00:00:04.50 bitrate=2330.2kbits/s speed=0.0183x elapsed=0:04:06.43    \nframe=  137 fps=0.6 q=41.5 size=    1280KiB time=00:00:04.50 bitrate=2330.2kbits/s speed=0.0182x elapsed=0:04:06.97    \nframe=  138 fps=0.6 q=44.9 size=    1280KiB time=00:00:04.53 bitrate=2313.1kbits/s speed=0.0183x elapsed=0:04:07.53    \nframe=  138 fps=0.6 q=44.9 size=    1280KiB time=00:00:04.53 bitrate=2313.1kbits/s speed=0.0183x elapsed=0:04:08.14    \nframe=  138 fps=0.6 q=44.9 size=    1280KiB time=00:00:04.53 bitrate=2313.1kbits/s speed=0.0182x elapsed=0:04:08.84    \nframe=  138 fps=0.6 q=44.9 size=    1280KiB time=00:00:04.53 bitrate=2313.1kbits/s speed=0.0182x elapsed=0:04:09.50    \nframe=  138 fps=0.6 q=44.9 size=    1280KiB time=00:00:04.53 bitrate=2313.1kbits/s speed=0.0181x elapsed=0:04:10.07    \nframe=  138 fps=0.6 q=44.9 size=    1280KiB time=00:00:04.53 bitrate=2313.1kbits/s speed=0.0181x elapsed=0:04:10.80    \nframe=  138 fps=0.5 q=44.9 size=    1280KiB time=00:00:04.53 bitrate=2313.1kbits/s speed=0.018x elapsed=0:04:11.53    \nframe=  138 fps=0.5 q=44.9 size=    1280KiB time=00:00:04.53 bitrate=2313.1kbits/s speed=0.018x elapsed=0:04:12.23    \nframe=  139 fps=0.5 q=46.1 size=    1280KiB time=00:00:04.56 bitrate=2296.2kbits/s speed=0.0181x elapsed=0:04:12.84    \nframe=  139 fps=0.5 q=46.1 size=    1280KiB time=00:00:04.56 bitrate=2296.2kbits/s speed=0.018x elapsed=0:04:13.59    \nframe=  139 fps=0.5 q=46.1 size=    1280KiB time=00:00:04.56 bitrate=2296.2kbits/s speed=0.018x elapsed=0:04:14.30    \nframe=  139 fps=0.5 q=46.1 size=    1280KiB time=00:00:04.56 bitrate=2296.2kbits/s speed=0.0179x elapsed=0:04:14.97    \nframe=  139 fps=0.5 q=46.1 size=    1280KiB time=00:00:04.56 bitrate=2296.2kbits/s speed=0.0179x elapsed=0:04:15.51    \nframe=  139 fps=0.5 q=46.1 size=    1280KiB time=00:00:04.56 bitrate=2296.2kbits/s speed=0.0178x elapsed=0:04:16.07    \nframe=  139 fps=0.5 q=46.1 size=    1280KiB time=00:00:04.56 bitrate=2296.2kbits/s speed=0.0178x elapsed=0:04:16.73    \nframe=  139 fps=0.5 q=46.1 size=    1280KiB time=00:00:04.56 bitrate=2296.2kbits/s speed=0.0177x elapsed=0:04:17.37    \nframe=  139 fps=0.5 q=46.1 size=    1280KiB time=00:00:04.56 bitrate=2296.2kbits/s speed=0.0177x elapsed=0:04:18.01    \nframe=  139 fps=0.5 q=46.1 size=    1280KiB time=00:00:04.56 bitrate=2296.2kbits/s speed=0.0177x elapsed=0:04:18.54    \nframe=  139 fps=0.5 q=46.1 size=    1280KiB time=00:00:04.56 bitrate=2296.2kbits/s speed=0.0176x elapsed=0:04:19.27    \nframe=  139 fps=0.5 q=46.1 size=    1280KiB time=00:00:04.56 bitrate=2296.2kbits/s speed=0.0176x elapsed=0:04:19.95    \nframe=  139 fps=0.5 q=46.1 size=    1280KiB time=00:00:04.56 bitrate=2296.2kbits/s speed=0.0175x elapsed=0:04:20.66    \nframe=  139 fps=0.5 q=46.1 size=    1280KiB time=00:00:04.56 bitrate=2296.2kbits/s speed=0.0175x elapsed=0:04:21.35    \nframe=  139 fps=0.5 q=46.1 size=    1280KiB time=00:00:04.56 bitrate=2296.2kbits/s speed=0.0174x elapsed=0:04:21.99    \nframe=  139 fps=0.5 q=46.1 size=    1280KiB time=00:00:04.56 bitrate=2296.2kbits/s speed=0.0174x elapsed=0:04:22.57    \nframe=  139 fps=0.5 q=46.1 size=    1280KiB time=00:00:04.56 bitrate=2296.2kbits/s speed=0.0174x elapsed=0:04:23.14    \nframe=  139 fps=0.5 q=46.1 size=    1280KiB time=00:00:04.56 bitrate=2296.2kbits/s speed=0.0173x elapsed=0:04:23.82    \nframe=  139 fps=0.5 q=46.1 size=    1280KiB time=00:00:04.56 bitrate=2296.2kbits/s speed=0.0173x elapsed=0:04:24.58    \nframe=  139 fps=0.5 q=46.1 size=    1280KiB time=00:00:04.56 bitrate=2296.2kbits/s speed=0.0172x elapsed=0:04:25.29    \nframe=  141 fps=0.5 q=46.1 size=    1280KiB time=00:00:04.63 bitrate=2263.2kbits/s speed=0.0174x elapsed=0:04:25.87    \nframe=  141 fps=0.5 q=46.1 size=    1280KiB time=00:00:04.63 bitrate=2263.2kbits/s speed=0.0174x elapsed=0:04:26.43    \nframe=  141 fps=0.5 q=46.1 size=    1280KiB time=00:00:04.63 bitrate=2263.2kbits/s speed=0.0173x elapsed=0:04:27.18    \nframe=  141 fps=0.5 q=46.1 size=    1280KiB time=00:00:04.63 bitrate=2263.2kbits/s speed=0.0173x elapsed=0:04:27.90    \nframe=  141 fps=0.5 q=46.1 size=    1280KiB time=00:00:04.63 bitrate=2263.2kbits/s speed=0.0173x elapsed=0:04:28.53    \nframe=  141 fps=0.5 q=46.1 size=    1280KiB time=00:00:04.63 bitrate=2263.2kbits/s speed=0.0172x elapsed=0:04:29.08    \nframe=  141 fps=0.5 q=46.1 size=    1280KiB time=00:00:04.63 bitrate=2263.2kbits/s speed=0.0172x elapsed=0:04:29.65    \nframe=  142 fps=0.5 q=42.0 size=    1280KiB time=00:00:04.66 bitrate=2247.0kbits/s speed=0.0173x elapsed=0:04:30.21    \nframe=  142 fps=0.5 q=42.0 size=    1280KiB time=00:00:04.66 bitrate=2247.0kbits/s speed=0.0172x elapsed=0:04:30.92    \nframe=  142 fps=0.5 q=42.0 size=    1280KiB time=00:00:04.66 bitrate=2247.0kbits/s speed=0.0172x elapsed=0:04:31.62    \nframe=  142 fps=0.5 q=42.0 size=    1280KiB time=00:00:04.66 bitrate=2247.0kbits/s speed=0.0171x elapsed=0:04:32.35    \nframe=  142 fps=0.5 q=42.0 size=    1280KiB time=00:00:04.66 bitrate=2247.0kbits/s speed=0.0171x elapsed=0:04:33.04    \nframe=  142 fps=0.5 q=42.0 size=    1280KiB time=00:00:04.66 bitrate=2247.0kbits/s speed=0.0171x elapsed=0:04:33.59    \nframe=  142 fps=0.5 q=42.0 size=    1280KiB time=00:00:04.66 bitrate=2247.0kbits/s speed=0.017x elapsed=0:04:34.12    \nframe=  142 fps=0.5 q=42.0 size=    1280KiB time=00:00:04.66 bitrate=2247.0kbits/s speed=0.017x elapsed=0:04:34.68    \nframe=  142 fps=0.5 q=42.0 size=    1280KiB time=00:00:04.66 bitrate=2247.0kbits/s speed=0.017x elapsed=0:04:35.21    \nframe=  142 fps=0.5 q=42.0 size=    1280KiB time=00:00:04.66 bitrate=2247.0kbits/s speed=0.0169x elapsed=0:04:35.72    \nframe=  142 fps=0.5 q=42.0 size=    1280KiB time=00:00:04.66 bitrate=2247.0kbits/s speed=0.0169x elapsed=0:04:36.24    \nframe=  143 fps=0.5 q=44.4 size=    1280KiB time=00:00:04.70 bitrate=2231.1kbits/s speed=0.017x elapsed=0:04:36.77    \nframe=  143 fps=0.5 q=44.4 size=    1280KiB time=00:00:04.70 bitrate=2231.1kbits/s speed=0.0169x elapsed=0:04:37.29    \nframe=  146 fps=0.5 q=46.0 size=    1280KiB time=00:00:04.80 bitrate=2184.6kbits/s speed=0.0173x elapsed=0:04:37.81    \nframe=  146 fps=0.5 q=46.0 size=    1280KiB time=00:00:04.80 bitrate=2184.6kbits/s speed=0.0172x elapsed=0:04:38.33    \nframe=  146 fps=0.5 q=46.0 size=    1280KiB time=00:00:04.80 bitrate=2184.6kbits/s speed=0.0172x elapsed=0:04:38.86    \nframe=  147 fps=0.5 q=43.7 size=    1280KiB time=00:00:04.80 bitrate=2184.6kbits/s speed=0.0172x elapsed=0:04:39.37    \nframe=  147 fps=0.5 q=43.7 size=    1280KiB time=00:00:04.83 bitrate=2169.5kbits/s speed=0.0173x elapsed=0:04:39.90    \nframe=  147 fps=0.5 q=43.7 size=    1280KiB time=00:00:04.83 bitrate=2169.5kbits/s speed=0.0172x elapsed=0:04:40.45    \nframe=  148 fps=0.5 q=44.4 size=    1280KiB time=00:00:04.86 bitrate=2154.7kbits/s speed=0.0173x elapsed=0:04:40.96    \nframe=  148 fps=0.5 q=44.4 size=    1280KiB time=00:00:04.86 bitrate=2154.7kbits/s speed=0.0173x elapsed=0:04:41.49    \n[mp4 @ 0000015ad740a980] Starting second pass: moving the moov atom to the beginning of the file\n[out#0/mp4 @ 0000015ad7411700] video:1527KiB audio:0KiB subtitle:0KiB other streams:0KiB global headers:2KiB muxing overhead: 0.328486%\nframe=  150 fps=0.5 q=46.0 Lsize=    1532KiB time=00:00:04.93 bitrate=2543.8kbits/s speed=0.0175x elapsed=0:04:41.93    \nx265 [info]: frame I:      1, Avg QP:38.47  kb/s: 11740.08\nx265 [info]: frame P:     31, Avg QP:41.42  kb/s: 4679.54 \nx265 [info]: frame B:    118, Avg QP:45.75  kb/s: 1849.99 \nx265 [info]: Weighted P-Frames: Y:0.0% UV:0.0%\n\nencoded 150 frames in 281.44s (0.53 fps), 2500.70 kb/s, Avg QP:44.80\n",
  "seconds": 282.3087365627289,
  "probe_out": {}
}